<?xml version="1.0" encoding="UTF-8" standalone="no"?>
<svg width="62px" height="62px" viewBox="0 0 62 62" version="1.1" xmlns="http://www.w3.org/2000/svg" xmlns:xlink="http://www.w3.org/1999/xlink" xmlns:sketch="http://www.bohemiancoding.com/sketch/ns">
    <!-- Generator: Sketch 3.5.2 (25235) - http://www.bohemiancoding.com/sketch -->
    <title>Shape</title>
    <desc>Created with Sketch.</desc>
    <defs></defs>
    <g id="Page-1" stroke="none" stroke-width="1" fill="none" fill-rule="evenodd" sketch:type="MSPage">
        <g id="Plataforma" sketch:type="MSArtboardGroup" transform="translate(-1018.000000, -4320.000000)" fill="#3D98A4">
            <g id="acompanhamento" sketch:type="MSLayerGroup" transform="translate(0.000000, 4054.000000)">
                <g id="title" transform="translate(349.000000, 86.000000)" sketch:type="MSShapeGroup">
                    <g id="Group" transform="translate(0.000000, 180.000000)">
                        <g id="item-copy-2" transform="translate(660.000000, 0.000000)">
                            <path d="M63.6651012,34.0225 C63.792547,33.0305 63.8881314,32.023 63.8881314,31 C63.8881314,29.977 63.792547,28.9695 63.6651012,27.9775 L70.4038005,22.847 C71.0091682,22.382 71.1844063,21.545 70.786138,20.863 L64.4138456,10.1215 C64.0155772,9.455 63.1871792,9.176 62.4702964,9.455 L54.5367921,12.5705 C52.8959268,11.346 51.0957543,10.3075 49.1522051,9.517 L47.9574002,1.302 C47.8140237,0.5735 47.1608636,0 46.3643271,0 L33.6197422,0 C32.8232057,0 32.1700456,0.5735 32.0425998,1.302 L30.8477949,9.517 C28.9042457,10.3075 27.1040732,11.3305 25.4632079,12.5705 L17.5297037,9.455 C16.8128208,9.1915 15.9844228,9.455 15.5861545,10.1215 L9.21386201,20.863 C8.81559373,21.5295 8.99083178,22.3665 9.59619956,22.847 L16.3189681,27.9775 C16.1915223,28.9695 16.0959379,29.977 16.0959379,31 C16.0959379,32.023 16.1915223,33.0305 16.3189681,34.0225 L9.59619956,39.153 C8.99083178,39.618 8.81559373,40.455 9.21386201,41.137 L15.5861545,51.8785 C15.9844228,52.545 16.8128208,52.824 17.5297037,52.545 L25.4632079,49.4295 C27.1040732,50.654 28.9042457,51.6925 30.8477949,52.483 L32.0425998,60.698 C32.1700456,61.4265 32.8232057,62 33.6197422,62 L46.3643271,62 C47.1608636,62 47.8140237,61.4265 47.9414695,60.698 L49.1362744,52.483 C51.0798236,51.6925 52.8799961,50.6695 54.5208614,49.4295 L62.4543655,52.545 C63.1712485,52.8085 63.9996465,52.545 64.3979148,51.8785 L70.7702073,41.137 C71.1684756,40.4705 70.9932375,39.6335 70.3878698,39.153 L63.6651012,34.0225 L63.6651012,34.0225 L63.6651012,34.0225 Z M39.9920346,41.85 C33.8268416,41.85 28.8405228,36.9985 28.8405228,31 C28.8405228,25.0015 33.8268416,20.15 39.9920346,20.15 C46.1572276,20.15 51.1435465,25.0015 51.1435465,31 C51.1435465,36.9985 46.1572276,41.85 39.9920346,41.85 L39.9920346,41.85 L39.9920346,41.85 Z" id="Shape"></path>
                        </g>
                    </g>
                </g>
            </g>
        </g>
    </g>
</svg>