<?xml version="1.0" encoding="UTF-8" standalone="no"?>
<svg width="36px" height="20px" viewBox="0 0 36 20" version="1.1" xmlns="http://www.w3.org/2000/svg" xmlns:xlink="http://www.w3.org/1999/xlink" xmlns:sketch="http://www.bohemiancoding.com/sketch/ns">
    <!-- Generator: Sketch 3.5.2 (25235) - http://www.bohemiancoding.com/sketch -->
    <title>Page 1</title>
    <desc>Created with Sketch.</desc>
    <defs></defs>
    <g id="Page-1" stroke="none" stroke-width="1" fill="none" fill-rule="evenodd" sketch:type="MSPage">
        <g id="Plataforma" sketch:type="MSArtboardGroup" transform="translate(-371.000000, -1154.000000)" fill="#65A0BD">
            <g id="cadernos" sketch:type="MSLayerGroup" transform="translate(-1.000000, 785.000000)">
                <g id="caderno-professor" transform="translate(81.000000, 341.000000)" sketch:type="MSShapeGroup">
                    <g id="tooltip" transform="translate(275.000000, 0.000000)">
                        <g id="balao">
                            <path d="M16,40 L20,40 L20,36 L16,36 L16,40 L16,40 Z M16,48 L20,48 L20,44 L16,44 L16,48 L16,48 Z M16,32 L20,32 L20,28 L16,28 L16,32 L16,32 Z M24,40 L52,40 L52,36 L24,36 L24,40 L24,40 Z M24,48 L52,48 L52,44 L24,44 L24,48 L24,48 Z M24,28 L24,32 L52,32 L52,28 L24,28 L24,28 Z" id="Page-1"></path>
                        </g>
                    </g>
                </g>
            </g>
        </g>
    </g>
</svg>