<?xml version="1.0" encoding="UTF-8" standalone="no"?>
<svg width="32px" height="42px" viewBox="0 0 32 42" version="1.1" xmlns="http://www.w3.org/2000/svg" xmlns:xlink="http://www.w3.org/1999/xlink" xmlns:sketch="http://www.bohemiancoding.com/sketch/ns">
    <!-- Generator: Sketch 3.5.2 (25235) - http://www.bohemiancoding.com/sketch -->
    <title>Page 1</title>
    <desc>Created with Sketch.</desc>
    <defs></defs>
    <g id="Page-1" stroke="none" stroke-width="1" fill="none" fill-rule="evenodd" sketch:type="MSPage">
        <g id="Plataforma" sketch:type="MSArtboardGroup" transform="translate(-917.000000, -1145.000000)" fill="#61A6C1">
            <g id="cadernos" sketch:type="MSLayerGroup" transform="translate(-1.000000, 785.000000)">
                <g id="caderno-professor" transform="translate(81.000000, 341.000000)" sketch:type="MSShapeGroup">
                    <g id="tooltip-copy-2" transform="translate(819.000000, 0.000000)">
                        <g id="balao">
                            <path d="M46,33 L44,33 L44,29 C44,23.48 39.52,19 34,19 C28.48,19 24,23.48 24,29 L24,33 L22,33 C19.79,33 18,34.79 18,37 L18,57 C18,59.209999 19.79,61 22,61 L46,61 C48.21,61 50,59.209999 50,57 L50,37 C50,34.79 48.21,33 46,33 L46,33 Z M34,51 C31.79,51 30,49.21 30,47 C30,44.79 31.79,43 34,43 C36.21,43 38,44.79 38,47 C38,49.21 36.21,51 34,51 L34,51 Z M40.2,33 L27.8,33 L27.8,29 C27.8,25.58 30.58,22.8 34,22.8 C37.42,22.8 40.2,25.58 40.2,29 L40.2,33 L40.2,33 Z" id="Page-1"></path>
                        </g>
                    </g>
                </g>
            </g>
        </g>
    </g>
</svg>