<?xml version="1.0" encoding="UTF-8" standalone="no"?>
<svg width="98px" height="62px" viewBox="0 0 98 62" version="1.1" xmlns="http://www.w3.org/2000/svg" xmlns:xlink="http://www.w3.org/1999/xlink" xmlns:sketch="http://www.bohemiancoding.com/sketch/ns">
    <!-- Generator: Sketch 3.5.2 (25235) - http://www.bohemiancoding.com/sketch -->
    <title>Page 1</title>
    <desc>Created with Sketch.</desc>
    <defs></defs>
    <g id="Page-1" stroke="none" stroke-width="1" fill="none" fill-rule="evenodd" sketch:type="MSPage">
        <g id="Plataforma" sketch:type="MSArtboardGroup" transform="translate(-349.000000, -4320.000000)" fill="#3D98A4">
            <g id="acompanhamento" sketch:type="MSLayerGroup" transform="translate(0.000000, 4054.000000)">
                <g id="title" transform="translate(349.000000, 86.000000)" sketch:type="MSShapeGroup">
                    <g id="Group" transform="translate(0.000000, 180.000000)">
                        <g id="item-copy-3">
                            <path d="M69.0454545,35 C63.6777273,35 55.3477273,36.5075 49,39.5225 C42.6522727,36.5075 34.3222727,35 28.9545455,35 C19.3104545,35 0,39.8825 0,49.625 L0,62 L98,62 L98,49.625 C98,39.8825 78.6895455,35 69.0454545,35 L69.0454545,35 Z M50,55 L6,55 L6,49.5833333 C6,47.265 17.264,42 28,42 C38.736,42 50,47.265 50,49.5833333 L50,55 L50,55 Z M91,55 L57.3341646,55 L57.3341646,49.5833333 C57.3341646,47.6116667 56.436409,45.8566667 55,44.2966667 C58.9725686,42.9966667 63.8204489,42 68.5561097,42 C79.5087282,42 91,47.265 91,49.5833333 L91,55 L91,55 Z M28.5,31 C37.0692857,31 44,24.0471429 44,15.5 C44,6.95285714 37.0692857,0 28.5,0 C19.9528571,0 13,6.95285714 13,15.5 C13,24.0471429 19.9528571,31 28.5,31 L28.5,31 Z M29,6 C33.9725,6 38,10.0275 38,15 C38,19.9725 33.9725,24 29,24 C24.0275,24 20,19.9725 20,15 C20,10.0275 24.0275,6 29,6 L29,6 Z M69.5,31 C78.0692857,31 85,24.0471429 85,15.5 C85,6.95285714 78.0692857,0 69.5,0 C60.9528571,0 54,6.95285714 54,15.5 C54,24.0471429 60.9528571,31 69.5,31 L69.5,31 Z M69,6 C73.9725,6 78,10.0275 78,15 C78,19.9725 73.9725,24 69,24 C64.0275,24 60,19.9725 60,15 C60,10.0275 64.0275,6 69,6 L69,6 Z" id="Page-1"></path>
                        </g>
                    </g>
                </g>
            </g>
        </g>
    </g>
</svg>