<?xml version="1.0" encoding="UTF-8" standalone="no"?>
<svg width="62px" height="62px" viewBox="0 0 62 62" version="1.1" xmlns="http://www.w3.org/2000/svg" xmlns:xlink="http://www.w3.org/1999/xlink" xmlns:sketch="http://www.bohemiancoding.com/sketch/ns">
    <!-- Generator: Sketch 3.5.2 (25235) - http://www.bohemiancoding.com/sketch -->
    <title>Page 1</title>
    <desc>Created with Sketch.</desc>
    <defs></defs>
    <g id="Page-1" stroke="none" stroke-width="1" fill="none" fill-rule="evenodd" sketch:type="MSPage">
        <g id="Plataforma" sketch:type="MSArtboardGroup" transform="translate(-574.000000, -4320.000000)" fill="#3D98A4">
            <g id="acompanhamento" sketch:type="MSLayerGroup" transform="translate(0.000000, 4054.000000)">
                <g id="title" transform="translate(349.000000, 86.000000)" sketch:type="MSShapeGroup">
                    <g id="Group" transform="translate(0.000000, 180.000000)">
                        <g id="item" transform="translate(204.000000, 0.000000)">
                            <path d="M52,7.3625 C56.495,7.3625 60.1375,11.005 60.1375,15.5 C60.1375,19.995 56.495,23.6375 52,23.6375 C47.505,23.6375 43.8625,19.995 43.8625,15.5 C43.8625,11.005 47.505,7.3625 52,7.3625 L52,7.3625 Z M52,42.2375 C63.528125,42.2375 75.6375,47.875625 75.6375,50.375 L75.6375,54.6375 L28.3625,54.6375 L28.3625,50.375 C28.3625,47.875625 40.471875,42.2375 52,42.2375 L52,42.2375 Z M52,0 C43.43625,0 36.5,6.93625 36.5,15.5 C36.5,24.044375 43.43625,31 52,31 C60.56375,31 67.5,24.044375 67.5,15.5 C67.5,6.93625 60.56375,0 52,0 L52,0 Z M52,34.875 C41.673125,34.875 21,40.048125 21,50.375 L21,62 L83,62 L83,50.375 C83,40.048125 62.326875,34.875 52,34.875 L52,34.875 Z" id="Page-1"></path>
                        </g>
                    </g>
                </g>
            </g>
        </g>
    </g>
</svg>