<?xml version="1.0" encoding="UTF-8" standalone="no"?>
<svg width="85px" height="88px" viewBox="0 0 85 88" version="1.1" xmlns="http://www.w3.org/2000/svg" xmlns:xlink="http://www.w3.org/1999/xlink" xmlns:sketch="http://www.bohemiancoding.com/sketch/ns">
    <!-- Generator: Sketch 3.5.2 (25235) - http://www.bohemiancoding.com/sketch -->
    <title>exerciselist</title>
    <desc>Created with Sketch.</desc>
    <defs></defs>
    <g id="Page-1" stroke="none" stroke-width="1" fill="none" fill-rule="evenodd" sketch:type="MSPage">
        <g id="Plataforma" sketch:type="MSArtboardGroup" transform="translate(-535.000000, -2759.000000)">
            <g id="conteudos" sketch:type="MSLayerGroup" transform="translate(0.000000, 2460.000000)">
                <g id="content" transform="translate(252.000000, 298.000000)" sketch:type="MSShapeGroup">
                    <g id="Group-7" transform="translate(271.000000, 0.000000)">
                        <g id="exerciselist" transform="translate(11.000000, 0.000000)">
                            <g id="Page-1">
                                <g>
                                    <g id="exerciselist">
                                        <g id="paper" transform="translate(0.015619, 0.064286)">
                                            <path d="M5.39686029,1.54285714 C3.18799659,1.54285714 1.10502668,3.63214286 1.10502668,5.74216591 L1.10502668,6.36428571 L1.10502668,84.1292627 C1.10502668,86.2392857 3.18799659,88.3285714 5.39686029,88.3285714 L71.2049754,88.3285714 C73.4138391,88.3285714 75.4968091,86.2392857 75.4968091,84.1292627 L75.4968091,28.1384793 L48.3151962,28.1384793 L48.3151962,1.54285714 L5.39686029,1.54285714 L5.39686029,1.54285714 Z" id="sheet" fill="#D3A77A"></path>
                                            <path d="M25.6082174,88.3285738 L71.2049754,88.3285714 C73.4138391,88.3285714 75.4968091,86.2392857 75.4968091,84.1292627 L75.4968081,36.9 C75.4968081,36.9 23.3993537,88.3285738 25.6082174,88.3285738 L25.6082174,88.3285738 Z" id="shadow" fill="#C69869"></path>
                                            <path d="M75.4968091,28.1384793 L48.3151962,28.1384793 L48.3151962,1.54285714 L75.4968091,28.1384793 L75.4968091,28.1384793 L75.4968091,28.1384793 Z" id="fold" fill="#EAC49E"></path>
                                            <path d="M9.60893855,60.2678571 C9.60893855,58.9364564 10.696611,57.8571429 12.018873,57.8571429 L61.6496559,57.8571429 C62.9806258,57.8571429 64.0595903,58.9271741 64.0595903,60.2678571 C64.0595903,61.5992578 62.9719179,62.6785714 61.6496559,62.6785714 L12.018873,62.6785714 C10.687903,62.6785714 9.60893855,61.6085402 9.60893855,60.2678571 L9.60893855,60.2678571 Z M9.60893855,69.9107143 C9.60893855,68.5793136 10.6690879,67.5 12.0171146,67.5 L36.0275782,67.5 C37.357577,67.5 38.4357542,68.5700312 38.4357542,69.9107143 C38.4357542,71.242115 37.3756048,72.3214286 36.0275782,72.3214286 L12.0171146,72.3214286 C10.6871157,72.3214286 9.60893855,71.2513974 9.60893855,69.9107143 L9.60893855,69.9107143 Z M9.60893855,50.625 C9.60893855,49.2935993 10.696611,48.2142857 12.018873,48.2142857 L61.6496559,48.2142857 C62.9806258,48.2142857 64.0595903,49.2843169 64.0595903,50.625 C64.0595903,51.9564007 62.9719179,53.0357143 61.6496559,53.0357143 L12.018873,53.0357143 C10.687903,53.0357143 9.60893855,51.9656831 9.60893855,50.625 L9.60893855,50.625 Z M9.60893855,40.9821429 C9.60893855,39.6507422 10.696611,38.5714286 12.018873,38.5714286 L61.6496559,38.5714286 C62.9806258,38.5714286 64.0595903,39.6414598 64.0595903,40.9821429 C64.0595903,42.3135436 62.9719179,43.3928571 61.6496559,43.3928571 L12.018873,43.3928571 C10.687903,43.3928571 9.60893855,42.3228259 9.60893855,40.9821429 L9.60893855,40.9821429 Z" id="lines" fill="#B47D4C"></path>
                                        </g>
                                        <g id="pincel" transform="translate(22.436476, 28.992857)">
                                            <path d="M5.5972067,49.1126786 L11.490689,55.3966071 L22.9989944,50.1975 L23.7420857,43.39125 L16.022905,37.2358929 L10.2575419,37.6553571 L5.5972067,49.1126786 L5.5972067,49.1126786 Z" id="polygon27" fill="#E47A25"></path>
                                            <path d="M22.9989944,50.1975 C29.5490875,43.8669643 57.2548603,18.6669643 57.2548603,18.5223214 C55.0624209,6.64392857 43.5797393,5.29553571 43.5797393,5.29553571 L10.2191061,37.6473214 L15.247784,37.6473214 C15.247784,37.6473214 16.8973184,44.6705357 22.5505773,44.6705357 C22.6322533,44.7669643 22.9989944,50.1975 22.9989944,50.1975 L22.9989944,50.1975 L22.9989944,50.1975 Z" id="path29" fill="#6D8E3B"></path>
                                            <path d="M48.4626816,6.75803571 C46.2702421,5.85803571 43.5797393,5.29553571 43.5797393,5.29553571 L10.2191061,37.6473214 L15.247784,37.6473214 L15.8243203,39.3026786 L48.4626816,6.75803571 L48.4626816,6.75803571 L48.4626816,6.75803571 Z" id="path31" fill="#82A83F"></path>
                                            <path d="M46.8932216,2.11339286 L44.7296089,3.99375 C46.1869646,4.21875 56.596648,6.13125 57.9755307,17.9421429 C57.9755307,17.9421429 60.5539292,15.3723214 60.5539292,15.3241071 C62.2835382,12.7366071 63.4686406,10.0366071 62.1073743,8.10803571 C59.8172439,4.90982143 57.623203,2.61160714 55.3346741,1.11696429 C51.4254376,-1.45446429 46.8932216,2.11339286 46.8932216,2.11339286 L46.8932216,2.11339286 L46.8932216,2.11339286 Z" id="path38" fill="#EA5D48"></path>
                                            <path d="M5.5972067,49.1126786 L11.490689,55.3966071 L20.5919553,51.2871429 L20.410987,48.375 L12.3074488,40.80375 L9.10446927,40.5305357 L5.5972067,49.1126786 L5.5972067,49.1126786 Z" id="polygon40" fill="#EE9B50"></path>
                                            <path d="M1.27959032,59.4642857 L11.5163128,55.4030357 L5.59560521,49.0146429 L1.27959032,59.4642857 L1.27959032,59.4642857 Z" id="polygon42" fill="#333333"></path>
                                            <path d="M47.4393296,6.40446429 L15.4415642,38.2435714 C15.8099069,39.4971429 17.6436127,44.415 22.2559032,44.6625 L54.7885661,12.285 C52.6762011,9.12053571 49.7598883,7.36875 47.4393296,6.40446429 L47.4393296,6.40446429 L47.4393296,6.40446429 Z" id="path44" fill="#799B3E"></path>
                                            <path d="M24.2641713,48.9133929 C24.2641713,48.9133929 23.8221601,43.2819643 23.7420857,43.1871429 C18.0728119,43.1871429 17.2416387,36.3792857 17.2416387,36.3792857 L11.5323277,36.3792857 L10.2191061,37.6489286 L15.247784,37.6489286 C15.247784,37.6489286 16.8973184,44.6721429 22.5505773,44.6721429 C22.6322533,44.7701786 22.9989944,50.1991071 22.9989944,50.1991071 C23.063054,50.1830357 24.2801862,48.9294643 24.2641713,48.9133929 L24.2641713,48.9133929 L24.2641713,48.9133929 Z" id="path46" opacity="0.1" fill="#FFFFFF"></path>
                                            <path d="M43.5797393,5.29553571 C43.5797393,5.29553571 54.9807449,6.80625 57.2548603,18.5223214 C58.8099069,17.0919643 58.6962011,17.38125 58.6962011,17.38125 L58.6962011,17.38125 C56.5021601,5.50446429 44.7296089,3.99375 44.7296089,3.99375 L43.5797393,5.29553571 L43.5797393,5.29553571 L43.5797393,5.29553571 Z" id="path53" fill="#B6B6B5"></path>
                                        </g>
                                    </g>
                                </g>
                            </g>
                        </g>
                    </g>
                </g>
            </g>
        </g>
    </g>
</svg>