<?xml version="1.0" encoding="UTF-8" standalone="no"?>
<svg width="104px" height="75px" viewBox="0 0 104 75" version="1.1" xmlns="http://www.w3.org/2000/svg" xmlns:xlink="http://www.w3.org/1999/xlink" xmlns:sketch="http://www.bohemiancoding.com/sketch/ns">
    <!-- Generator: Sketch 3.5.2 (25235) - http://www.bohemiancoding.com/sketch -->
    <title>video</title>
    <desc>Created with Sketch.</desc>
    <defs></defs>
    <g id="Page-1" stroke="none" stroke-width="1" fill="none" fill-rule="evenodd" sketch:type="MSPage">
        <g id="Plataforma" sketch:type="MSArtboardGroup" transform="translate(-1093.000000, -2770.000000)">
            <g id="conteudos" sketch:type="MSLayerGroup" transform="translate(0.000000, 2460.000000)">
                <g id="content" transform="translate(252.000000, 298.000000)" sketch:type="MSShapeGroup">
                    <g id="Group-10" transform="translate(830.000000, 11.000000)">
                        <g id="video" transform="translate(10.000000, 0.000000)">
                            <g id="svg4190">
                                <g id="layer1" transform="translate(0.686350, 1.139866)">
                                    <g id="g3187" transform="translate(0.915139, 0.467277)">
                                        <g id="g3189" fill="#676767">
                                            <path d="M102.495108,16.4865833 C102.495108,14.9790266 101.584268,13.6708452 100.274628,13.0743518 C99.8190915,12.9034255 99.3065833,12.7893968 98.8223272,12.7893968 C97.855216,12.7893968 98.0429411,12.6478521 97.08587,12.9661529 L79.7184954,19.1085425 L79.7184954,16.6339577 C79.7187289,7.45010464 72.3446811,0 63.2339425,0 L16.4847864,0 C7.37428129,0 0,7.45010464 0,16.6339577 L0,57.2943804 C0,66.4782335 7.37428129,73.9285713 16.4847864,73.9285713 L63.2339425,73.9285713 C72.3446811,73.9285713 79.7187289,66.4782335 79.7187289,57.2943804 L79.7187289,54.8769265 L97.0861034,61.1053623 C97.8584849,61.3506755 97.8554495,61.2532031 98.8225607,61.2532031 C99.3065833,61.2532031 99.819325,61.1389413 100.274862,60.9682481 C101.584268,60.3990376 102.495342,59.996323 102.495342,58.4878336 L102.495342,16.4865833 L102.495108,16.4865833 Z" id="path3191"></path>
                                        </g>
                                        <path d="M22.7770799,17.0604575 L56.9418825,17.0604575 C61.6679322,17.0604575 65.4831415,20.8700402 65.4831415,25.5906862 L65.4831415,48.3378851 C65.4831415,53.0585311 61.6679322,56.8681138 56.9418825,56.8681138 L22.7770799,56.8681138 C18.0507967,56.8681138 14.2358209,53.0585311 14.2358209,48.3378851 L14.2358209,25.5906862 C14.2358209,20.8700402 18.0507967,17.0604575 22.7770799,17.0604575 L22.7770799,17.0604575 Z" id="path3193" fill="#CAE3E7"></path>
                                    </g>
                                </g>
                            </g>
                        </g>
                    </g>
                </g>
            </g>
        </g>
    </g>
</svg>